<?xml version="1.0" encoding="iso-8859-1"?>
<!-- Generator: Adobe Illustrator 26.0.1, SVG Export Plug-In . SVG Version: 6.00 Build 0)  -->
<svg version="1.1" id="Layer_1" xmlns="http://www.w3.org/2000/svg" xmlns:xlink="http://www.w3.org/1999/xlink" x="0px" y="0px"
	 viewBox="0 0 500 500" style="enable-background:new 0 0 500 500;" xml:space="preserve">
<g>
	<path style="fill:#FBB040;" d="M250.141,495.11c135.322,0,245.002-109.692,245.002-245c0-135.306-109.68-245-245.002-245
		c-135.317,0-244.998,109.694-244.998,245C5.143,385.418,114.823,495.11,250.141,495.11z M120.889,103.905h62.4l-0.332-10.183H210.2
		l1.425-22.04c0,0,0.458-7.524,7.443-7.524h62.144c6.988,0,7.448,7.524,7.448,7.524l1.425,22.04h6.283h20.963l-0.711,10.183h62.777
		v332.156H120.889V103.905z"/>
	<path style="fill:#FBB040;" d="M227.023,80.532h46.239c1.586,0,2.87-1.286,2.87-2.87V74.33c0-1.58-1.284-2.866-2.87-2.866h-46.239
		c-1.586,0-2.87,1.286-2.87,2.866v3.332C224.153,79.247,225.437,80.532,227.023,80.532z"/>
	<polygon style="fill:#00859A;" points="379.397,103.905 316.62,103.905 315.478,120.259 364.634,120.259 364.634,126.012 
		369.649,126.012 369.649,427.009 140.674,427.009 140.674,421.256 135.652,421.256 135.652,120.259 183.827,120.259 
		183.289,103.905 120.889,103.905 120.889,436.061 379.397,436.061 	"/>
	<polygon style="fill:#26647E;" points="140.674,421.256 140.674,427.009 369.649,427.009 369.649,126.012 364.634,126.012 
		364.634,421.256 	"/>
	<path style="fill:#E8E6D9;" d="M315.195,124.361l-0.339,4.838c0,0-1.613,5.915-6.985,6.988h-11.503h-34.941h-70.321
		c-5.374-1.073-6.985-6.988-6.985-6.988l-0.294-8.94h-48.176v300.997h5.022h223.961V126.012v-5.753h-49.156L315.195,124.361
		L315.195,124.361z M243.164,205.981v4.302h-85.959v-4.302H243.164z M157.205,197.23v-4.302h45.494v4.302H157.205z M338.261,205.981
		v4.302h-61.819v-4.302H338.261z M324.501,197.23v-4.302h13.76v4.302H324.501z M251.168,274.362h20.056v4.299h-20.056V274.362z
		 M214.962,265.606v-4.299h44.112v4.299H214.962z M265.142,265.606v-4.299h54.227v4.299H265.142z M271.225,251.712h-20.056v-4.299
		h20.056V251.712z M263.802,224.17v-4.299h27.112v4.299H263.802z M318.027,197.23h-54.225v-4.302h54.225V197.23z M269.883,205.981
		v4.302h-20.059v-4.302H269.883z M257.732,197.23H213.62v-4.302h44.112V197.23z M213.62,219.871h44.112v4.299H213.62V219.871z
		 M244.504,247.413v4.299h-85.959v-4.299H244.504z M204.036,261.307v4.299h-45.492v-4.299H204.036z M244.504,274.362v4.299h-85.959
		v-4.299H244.504z M214.962,288.25h44.112v4.299h-44.112V288.25z M245.846,315.792v4.306h-85.957v-4.306H245.846z M205.38,329.686
		v4.299h-45.492v-4.299H205.38z M245.846,342.741v4.299h-85.957v-4.299H245.846z M216.304,333.985v-4.299h44.112v4.299H216.304z
		 M252.508,342.741h20.059v4.299h-20.059V342.741z M266.486,333.985v-4.299h54.228v4.299H266.486z M272.567,320.098h-20.059v-4.306
		h20.059V320.098z M265.142,292.549v-4.299h27.116v4.299H265.142z M277.784,278.661v-4.299h61.819v4.299H277.784z M325.845,265.606
		v-4.299h13.758v4.299H325.845z M277.784,251.712v-4.299h61.819v4.299H277.784z M276.442,179.034h61.819v4.297h-61.819V179.034z
		 M249.824,179.034h20.059v4.297h-20.059V179.034z M243.164,179.034v4.297h-85.959v-4.297H243.164z M157.205,219.871h45.494v4.299
		h-45.494V219.871z M158.544,288.25h45.492v4.299h-45.492V288.25z M205.38,360.933h-45.492v-4.304h45.492V360.933z M260.416,360.933
		h-44.112v-4.304h44.112V360.933z M293.597,360.933h-27.112v-4.304h27.112V360.933z M340.945,347.04h-61.817v-4.299h61.817V347.04z
		 M340.945,333.985h-13.755v-4.299h13.755V333.985z M340.945,320.098h-61.817v-4.306h61.817V320.098z"/>
	<rect x="157.205" y="179.034" style="fill:#CEC8BE;" width="85.959" height="4.297"/>
	<rect x="276.442" y="179.034" style="fill:#CEC8BE;" width="61.819" height="4.297"/>
	<rect x="249.824" y="179.034" style="fill:#CEC8BE;" width="20.059" height="4.297"/>
	<rect x="157.205" y="192.928" style="fill:#CEC8BE;" width="45.494" height="4.302"/>
	<rect x="324.501" y="192.928" style="fill:#CEC8BE;" width="13.76" height="4.302"/>
	<rect x="263.802" y="192.928" style="fill:#CEC8BE;" width="54.225" height="4.302"/>
	<rect x="213.62" y="192.928" style="fill:#CEC8BE;" width="44.112" height="4.302"/>
	<rect x="157.205" y="205.981" style="fill:#CEC8BE;" width="85.959" height="4.302"/>
	<rect x="276.442" y="205.981" style="fill:#CEC8BE;" width="61.819" height="4.302"/>
	<rect x="249.824" y="205.981" style="fill:#CEC8BE;" width="20.059" height="4.302"/>
	<rect x="157.205" y="219.871" style="fill:#CEC8BE;" width="45.494" height="4.299"/>
	<rect x="263.802" y="219.871" style="fill:#CEC8BE;" width="27.112" height="4.299"/>
	<rect x="213.62" y="219.871" style="fill:#CEC8BE;" width="44.112" height="4.299"/>
	<rect x="158.544" y="247.413" style="fill:#CEC8BE;" width="85.959" height="4.299"/>
	<rect x="277.784" y="247.413" style="fill:#CEC8BE;" width="61.819" height="4.299"/>
	<rect x="251.168" y="247.413" style="fill:#CEC8BE;" width="20.056" height="4.299"/>
	<rect x="158.544" y="261.307" style="fill:#CEC8BE;" width="45.492" height="4.299"/>
	<rect x="325.845" y="261.307" style="fill:#CEC8BE;" width="13.758" height="4.299"/>
	<rect x="265.142" y="261.307" style="fill:#CEC8BE;" width="54.228" height="4.299"/>
	<rect x="214.962" y="261.307" style="fill:#CEC8BE;" width="44.112" height="4.299"/>
	<rect x="158.544" y="274.362" style="fill:#CEC8BE;" width="85.959" height="4.299"/>
	<rect x="277.784" y="274.362" style="fill:#CEC8BE;" width="61.819" height="4.299"/>
	<rect x="251.168" y="274.362" style="fill:#CEC8BE;" width="20.056" height="4.299"/>
	<rect x="158.544" y="288.25" style="fill:#CEC8BE;" width="45.492" height="4.299"/>
	<rect x="265.142" y="288.25" style="fill:#CEC8BE;" width="27.116" height="4.299"/>
	<rect x="214.962" y="288.25" style="fill:#CEC8BE;" width="44.112" height="4.299"/>
	<rect x="159.889" y="315.792" style="fill:#CEC8BE;" width="85.957" height="4.306"/>
	<rect x="279.128" y="315.792" style="fill:#CEC8BE;" width="61.817" height="4.306"/>
	<rect x="252.508" y="315.792" style="fill:#CEC8BE;" width="20.059" height="4.306"/>
	<rect x="159.889" y="329.686" style="fill:#CEC8BE;" width="45.492" height="4.299"/>
	<rect x="327.189" y="329.686" style="fill:#CEC8BE;" width="13.755" height="4.299"/>
	<rect x="266.486" y="329.686" style="fill:#CEC8BE;" width="54.228" height="4.299"/>
	<rect x="216.304" y="329.686" style="fill:#CEC8BE;" width="44.112" height="4.299"/>
	<rect x="159.889" y="342.741" style="fill:#CEC8BE;" width="85.957" height="4.299"/>
	<rect x="279.128" y="342.741" style="fill:#CEC8BE;" width="61.817" height="4.299"/>
	<rect x="252.508" y="342.741" style="fill:#CEC8BE;" width="20.059" height="4.299"/>
	<rect x="159.889" y="356.629" style="fill:#CEC8BE;" width="45.492" height="4.304"/>
	<rect x="266.486" y="356.629" style="fill:#CEC8BE;" width="27.112" height="4.304"/>
	<rect x="216.304" y="356.629" style="fill:#CEC8BE;" width="44.112" height="4.304"/>
	<polygon style="fill:#ABC1D7;" points="261.428,124.361 296.368,124.361 296.368,93.722 290.085,93.722 261.428,93.722 	"/>
	<polygon style="fill:#B9CADB;" points="296.368,124.361 315.195,124.361 315.478,120.259 316.62,103.905 317.331,93.722 
		296.368,93.722 	"/>
	<rect x="221.651" y="93.722" style="fill:#92B3CD;" width="39.776" height="30.639"/>
	<path style="fill:#7BA1BC;" d="M184.121,129.199c0,0,1.611,5.915,6.985,6.988h70.321h34.941h11.503
		c5.372-1.073,6.985-6.988,6.985-6.988l0.339-4.838l0,0h-18.827h-34.941h-39.776V93.722H210.2h-27.244l0.332,10.183l0.539,16.354
		L184.121,129.199z"/>
	<path style="fill:#ABC1D7;" d="M261.428,93.722h28.658l-1.425-22.04c0,0-0.46-7.524-7.448-7.524h-62.144
		c-6.985,0-7.443,7.524-7.443,7.524l-1.425,22.04h11.451H261.428z M224.153,74.33c0-1.58,1.284-2.866,2.87-2.866h46.239
		c1.586,0,2.87,1.286,2.87,2.866v3.332c0,1.584-1.284,2.87-2.87,2.87h-46.239c-1.586,0-2.87-1.286-2.87-2.87V74.33z"/>
</g>
</svg>
