<?xml version="1.0" encoding="iso-8859-1"?>
<!-- Generator: Adobe Illustrator 26.0.1, SVG Export Plug-In . SVG Version: 6.00 Build 0)  -->
<svg version="1.1" id="Layer_1" xmlns="http://www.w3.org/2000/svg" xmlns:xlink="http://www.w3.org/1999/xlink" x="0px" y="0px"
	 viewBox="0 0 595.276 841.89" style="enable-background:new 0 0 595.276 841.89;" xml:space="preserve">
<g>
	<path style="fill:#00B9C5;" d="M311.718,236.482c-91.538,0-165.731,72.189-165.731,161.244c0,44.329,18.395,84.473,48.153,113.621
		v-0.078h7.373v-10.135h11.788v-7.257h5.099V393.593h-5.099v-7.257h-4.085V374.95h-15.866v-10.137h8.162V354.68h22.32l87.491-80.632
		l87.491,80.632h23.902v10.134h6.582v10.137h-15.866v11.386h-4.085v7.257h-5.1v93.362v6.92h5.1v7.257h13.369v10.135h6.659
		c29.714-29.142,48.078-69.252,48.078-113.543C477.453,308.671,403.253,236.482,311.718,236.482z"/>
	<path style="fill:#00B9C5;" d="M311.718,558.969c40.467,0,77.53-14.126,106.307-37.565H205.411
		C234.188,544.844,271.251,558.969,311.718,558.969z"/>
	<path style="fill:#B2A79B;" d="M341.245,493.876V393.593h-5.1v-7.257h-4.085V374.95h-41.474v11.386h-4.085v7.257h-5.099v93.362
		v6.92h5.099v7.257h1.876v-66.662c0-12.33,10.272-22.322,22.945-22.322c12.673,0,22.947,9.992,22.947,22.322v66.662h1.875v-7.257
		H341.245z"/>
	<path style="fill:#B2A79B;" d="M364.317,386.336v7.257h-5.099v44.142c3.438-4.337,8.818-7.142,14.882-7.142
		c4.648,0,8.895,1.65,12.177,4.37v-41.37h-5.102v-7.257h-4.083V374.95h-8.69v11.386H364.317z"/>
	<path style="fill:#B2A79B;" d="M250.33,430.593c5.099,0,9.713,1.979,13.102,5.185v-42.185h-5.102v-7.257h-4.085V374.95h-8.69
		v11.386h-4.085v7.257h-5.099v43.068C239.812,432.944,244.784,430.593,250.33,430.593z"/>
	<path style="fill:#969085;" d="M311.323,412.15c-12.673,0-22.945,9.992-22.945,22.322v66.662h45.892v-66.662
		C334.27,422.142,323.997,412.15,311.323,412.15z"/>
	<path style="fill:#969085;" d="M263.432,493.876v-58.098c-3.388-3.206-8.003-5.185-13.102-5.185
		c-5.547,0-10.518,2.351-13.959,6.068v50.294v6.92h5.099v7.257h16.86v-7.257H263.432z"/>
	<path style="fill:#969085;" d="M386.277,493.876v-58.913c-3.282-2.72-7.529-4.37-12.177-4.37c-6.064,0-11.444,2.804-14.882,7.142
		v49.22v6.92h5.099v7.257h16.858v-7.257H386.277z"/>
	<path style="fill:#E8E6D9;" d="M311.323,274.047l-87.491,80.632h174.981L311.323,274.047z M311.323,296.535l48.951,45.348h-97.901
		L311.323,296.535z"/>
	<polygon style="fill:#D9CBBB;" points="311.323,296.535 262.374,341.883 360.275,341.883 	"/>
	<polygon style="fill:#DCD6CC;" points="398.814,364.813 422.716,364.813 422.716,354.68 398.814,354.68 223.833,354.68 
		201.513,354.68 201.513,364.813 223.833,364.813 	"/>
	<polygon style="fill:#C8BBAD;" points="245.555,374.95 254.245,374.95 290.587,374.95 332.06,374.95 368.402,374.95 
		377.092,374.95 413.432,374.95 429.298,374.95 429.298,364.813 422.716,364.813 398.814,364.813 223.833,364.813 201.513,364.813 
		193.351,364.813 193.351,374.95 209.216,374.95 	"/>
	<polygon style="fill:#DCD6CC;" points="398.814,511.268 422.716,511.268 422.716,501.133 409.347,501.133 381.175,501.133 
		364.317,501.133 336.145,501.133 334.27,501.133 288.378,501.133 286.502,501.133 258.33,501.133 241.47,501.133 213.301,501.133 
		201.513,501.133 201.513,511.268 223.833,511.268 	"/>
	<polygon style="fill:#C8BBAD;" points="398.814,511.268 223.833,511.268 201.513,511.268 194.14,511.268 194.14,511.347 
		194.14,521.404 205.411,521.404 418.025,521.404 430.09,521.404 430.09,511.268 429.375,511.268 422.716,511.268 	"/>
	<polygon style="fill:#C8BBAD;" points="241.47,386.336 245.555,386.336 245.555,374.95 209.216,374.95 209.216,386.336 
		213.301,386.336 	"/>
	<polygon style="fill:#DCD6CC;" points="227.25,393.593 236.371,393.593 241.47,393.593 241.47,386.336 213.301,386.336 
		213.301,393.593 218.4,393.593 	"/>
	<polygon style="fill:#DCD6CC;" points="241.47,501.133 241.47,493.876 236.371,493.876 218.4,493.876 213.301,493.876 
		213.301,501.133 	"/>
	<polygon style="fill:#D9CBBB;" points="236.371,393.593 227.25,393.593 227.25,486.956 236.371,486.956 236.371,436.662 	"/>
	<polygon style="fill:#C4B8AA;" points="236.371,493.876 236.371,486.956 227.25,486.956 227.25,393.593 218.4,393.593 
		218.4,493.876 	"/>
	<polygon style="fill:#C8BBAD;" points="258.33,386.336 286.502,386.336 290.587,386.336 290.587,374.95 254.245,374.95 
		254.245,386.336 	"/>
	<polygon style="fill:#DCD6CC;" points="258.33,393.593 263.432,393.593 272.281,393.593 281.403,393.593 286.502,393.593 
		286.502,386.336 258.33,386.336 	"/>
	<polygon style="fill:#DCD6CC;" points="281.403,493.876 263.432,493.876 258.33,493.876 258.33,501.133 286.502,501.133 
		286.502,493.876 	"/>
	<rect x="272.281" y="393.593" style="fill:#D9CBBB;" width="9.121" height="93.362"/>
	<polygon style="fill:#C4B8AA;" points="272.281,393.593 263.432,393.593 263.432,435.778 263.432,493.876 281.403,493.876 
		281.403,486.956 272.281,486.956 	"/>
	<polygon style="fill:#C8BBAD;" points="336.145,386.336 364.317,386.336 368.402,386.336 368.402,374.95 332.06,374.95 
		332.06,386.336 	"/>
	<polygon style="fill:#DCD6CC;" points="359.218,393.593 364.317,393.593 364.317,386.336 336.145,386.336 336.145,393.593 
		341.245,393.593 350.097,393.593 	"/>
	<polygon style="fill:#DCD6CC;" points="359.218,493.876 341.245,493.876 336.145,493.876 336.145,501.133 364.317,501.133 
		364.317,493.876 	"/>
	<polygon style="fill:#D9CBBB;" points="350.097,393.593 350.097,486.956 359.218,486.956 359.218,437.735 359.218,393.593 	"/>
	<polygon style="fill:#C4B8AA;" points="350.097,486.956 350.097,393.593 341.245,393.593 341.245,493.876 359.218,493.876 
		359.218,486.956 	"/>
	<polygon style="fill:#C8BBAD;" points="377.092,374.95 377.092,386.336 381.175,386.336 409.347,386.336 413.432,386.336 
		413.432,374.95 	"/>
	<polygon style="fill:#DCD6CC;" points="381.175,386.336 381.175,393.593 386.277,393.593 395.127,393.593 404.247,393.593 
		409.347,393.593 409.347,386.336 	"/>
	<polygon style="fill:#DCD6CC;" points="386.277,493.876 381.175,493.876 381.175,501.133 409.347,501.133 409.347,493.876 
		404.247,493.876 	"/>
	<rect x="395.127" y="393.593" style="fill:#D9CBBB;" width="9.12" height="93.362"/>
	<polygon style="fill:#C4B8AA;" points="395.127,486.956 395.127,393.593 386.277,393.593 386.277,434.963 386.277,493.876 
		404.247,493.876 404.247,486.956 	"/>
</g>
</svg>
