<?xml version="1.0" encoding="iso-8859-1"?>
<!-- Generator: Adobe Illustrator 26.0.1, SVG Export Plug-In . SVG Version: 6.00 Build 0)  -->
<svg version="1.1" id="Layer_1" xmlns="http://www.w3.org/2000/svg" xmlns:xlink="http://www.w3.org/1999/xlink" x="0px" y="0px"
	 viewBox="0 0 500 500" style="enable-background:new 0 0 500 500;" xml:space="preserve">
<g>
	<path style="fill:#00B9C5;" d="M250.188,4.115c-135.318,0-244.997,109.687-244.997,245c0,67.356,27.192,128.352,71.183,172.64
		v-0.119h10.899v-15.4H104.7v-11.027h7.537V242.836H104.7V231.81h-6.039v-17.301H75.207v-15.402h12.066v-15.398h32.995
		L249.604,61.193L378.94,183.709h35.334v15.398h9.73v15.402h-23.454v17.301h-6.039v11.027h-7.54v141.858v10.515h7.54v11.027h19.763
		v15.4h9.844c43.926-44.279,71.073-105.224,71.073-172.521C495.191,113.802,385.501,4.115,250.188,4.115z"/>
	<path style="fill:#00B9C5;" d="M250.188,494.115c59.822,0,114.611-21.463,157.152-57.079H93.036
		C135.577,472.652,190.366,494.115,250.188,494.115z"/>
	<path style="fill:#B2A79B;" d="M293.837,395.209V242.836h-7.54V231.81h-6.039v-17.301h-61.31v17.301h-6.039v11.027h-7.537v141.858
		v10.515h7.537v11.027h2.774V304.948c0-18.734,15.185-33.917,33.92-33.917c18.735,0,33.922,15.182,33.922,33.917v101.288h2.771
		v-11.027H293.837z"/>
	<path style="fill:#B2A79B;" d="M327.944,231.81v11.027h-7.538v67.071c5.083-6.59,13.035-10.852,22-10.852
		c6.871,0,13.15,2.506,18.001,6.64v-62.859h-7.542V231.81h-6.036v-17.301h-12.847v17.301H327.944z"/>
	<path style="fill:#B2A79B;" d="M159.439,299.055c7.537,0,14.359,3.007,19.368,7.878v-64.098h-7.542V231.81h-6.039v-17.301H152.38
		v17.301h-6.039v11.027h-7.538v65.439C143.891,302.628,151.24,299.055,159.439,299.055z"/>
	<path style="fill:#969085;" d="M249.604,271.031c-18.735,0-33.92,15.182-33.92,33.917v101.288h67.842V304.948
		C283.526,286.213,268.339,271.031,249.604,271.031z"/>
	<path style="fill:#969085;" d="M178.807,395.209v-88.276c-5.009-4.872-11.83-7.878-19.368-7.878c-8.199,0-15.548,3.572-20.636,9.22
		v76.419v10.515h7.538v11.027h24.924v-11.027H178.807z"/>
	<path style="fill:#969085;" d="M360.407,395.209v-89.514c-4.851-4.133-11.13-6.64-18.001-6.64c-8.965,0-16.917,4.261-22,10.852
		v74.788v10.515h7.538v11.027h24.922v-11.027H360.407z"/>
	<path style="fill:#E8E6D9;" d="M249.604,61.193L120.269,183.709H378.94L249.604,61.193z M249.604,95.361l72.364,68.904H177.243
		L249.604,95.361z"/>
	<polygon style="fill:#D9CBBB;" points="249.604,95.361 177.243,164.265 321.968,164.265 	"/>
	<polygon style="fill:#DCD6CC;" points="378.94,199.107 414.273,199.107 414.273,183.709 378.94,183.709 120.269,183.709 
		87.273,183.709 87.273,199.107 120.269,199.107 	"/>
	<polygon style="fill:#C8BBAD;" points="152.38,214.509 165.227,214.509 218.949,214.509 280.259,214.509 333.982,214.509 
		346.829,214.509 400.549,214.509 424.003,214.509 424.003,199.107 414.273,199.107 378.94,199.107 120.269,199.107 87.273,199.107 
		75.207,199.107 75.207,214.509 98.661,214.509 	"/>
	<polygon style="fill:#DCD6CC;" points="378.94,421.636 414.273,421.636 414.273,406.236 394.511,406.236 352.865,406.236 
		327.944,406.236 286.298,406.236 283.526,406.236 215.684,406.236 212.911,406.236 171.265,406.236 146.341,406.236 104.7,406.236 
		87.273,406.236 87.273,421.636 120.269,421.636 	"/>
	<polygon style="fill:#C8BBAD;" points="378.94,421.636 120.269,421.636 87.273,421.636 76.374,421.636 76.374,421.755 
		76.374,437.036 93.036,437.036 407.34,437.036 425.175,437.036 425.175,421.636 424.118,421.636 414.273,421.636 	"/>
	<polygon style="fill:#C8BBAD;" points="146.341,231.81 152.38,231.81 152.38,214.509 98.661,214.509 98.661,231.81 104.7,231.81 	
		"/>
	<polygon style="fill:#DCD6CC;" points="125.32,242.836 138.804,242.836 146.341,242.836 146.341,231.81 104.7,231.81 
		104.7,242.836 112.237,242.836 	"/>
	<polygon style="fill:#DCD6CC;" points="146.341,406.236 146.341,395.209 138.804,395.209 112.237,395.209 104.7,395.209 
		104.7,406.236 	"/>
	<polygon style="fill:#D9CBBB;" points="138.804,242.836 125.32,242.836 125.32,384.694 138.804,384.694 138.804,308.276 	"/>
	<polygon style="fill:#C4B8AA;" points="138.804,395.209 138.804,384.694 125.32,384.694 125.32,242.836 112.237,242.836 
		112.237,395.209 	"/>
	<polygon style="fill:#C8BBAD;" points="171.265,231.81 212.911,231.81 218.949,231.81 218.949,214.509 165.227,214.509 
		165.227,231.81 	"/>
	<polygon style="fill:#DCD6CC;" points="171.265,242.836 178.807,242.836 191.889,242.836 205.373,242.836 212.911,242.836 
		212.911,231.81 171.265,231.81 	"/>
	<polygon style="fill:#DCD6CC;" points="205.373,395.209 178.807,395.209 171.265,395.209 171.265,406.236 212.911,406.236 
		212.911,395.209 	"/>
	<rect x="191.889" y="242.836" style="fill:#D9CBBB;" width="13.484" height="141.858"/>
	<polygon style="fill:#C4B8AA;" points="191.889,242.836 178.807,242.836 178.807,306.934 178.807,395.209 205.373,395.209 
		205.373,384.694 191.889,384.694 	"/>
	<polygon style="fill:#C8BBAD;" points="286.298,231.81 327.944,231.81 333.982,231.81 333.982,214.509 280.259,214.509 
		280.259,231.81 	"/>
	<polygon style="fill:#DCD6CC;" points="320.406,242.836 327.944,242.836 327.944,231.81 286.298,231.81 286.298,242.836 
		293.837,242.836 306.922,242.836 	"/>
	<polygon style="fill:#DCD6CC;" points="320.406,395.209 293.837,395.209 286.298,395.209 286.298,406.236 327.944,406.236 
		327.944,395.209 	"/>
	<polygon style="fill:#D9CBBB;" points="306.922,242.836 306.922,384.694 320.406,384.694 320.406,309.907 320.406,242.836 	"/>
	<polygon style="fill:#C4B8AA;" points="306.922,384.694 306.922,242.836 293.837,242.836 293.837,395.209 320.406,395.209 
		320.406,384.694 	"/>
	<polygon style="fill:#C8BBAD;" points="346.829,214.509 346.829,231.81 352.865,231.81 394.511,231.81 400.549,231.81 
		400.549,214.509 	"/>
	<polygon style="fill:#DCD6CC;" points="352.865,231.81 352.865,242.836 360.407,242.836 373.489,242.836 386.971,242.836 
		394.511,242.836 394.511,231.81 	"/>
	<polygon style="fill:#DCD6CC;" points="360.407,395.209 352.865,395.209 352.865,406.236 394.511,406.236 394.511,395.209 
		386.971,395.209 	"/>
	<rect x="373.489" y="242.836" style="fill:#D9CBBB;" width="13.482" height="141.858"/>
	<polygon style="fill:#C4B8AA;" points="373.489,384.694 373.489,242.836 360.407,242.836 360.407,305.695 360.407,395.209 
		386.971,395.209 386.971,384.694 	"/>
</g>
</svg>
