<?xml version="1.0" encoding="iso-8859-1"?>
<!-- Generator: Adobe Illustrator 26.0.1, SVG Export Plug-In . SVG Version: 6.00 Build 0)  -->
<svg version="1.1" id="Layer_1" xmlns="http://www.w3.org/2000/svg" xmlns:xlink="http://www.w3.org/1999/xlink" x="0px" y="0px"
	 viewBox="0 0 500 500" style="enable-background:new 0 0 500 500;" xml:space="preserve">
<g>
	<path style="fill:#EC524F;" d="M250.141,5.11C114.823,5.11,5.143,114.804,5.143,250.117c0,135.306,109.68,244.993,244.998,244.993
		c135.313,0,245.002-109.687,245.002-244.993C495.143,114.804,385.454,5.11,250.141,5.11z M448.958,346.583v4.311h-67.296H264.489
		H164.053h-6.146H51.328V149.329h112.725h100.435h117.173h67.296V346.583z"/>
	<rect x="264.489" y="333.478" style="fill:#73BA90;" width="117.173" height="13.104"/>
	<rect x="264.489" y="149.329" style="fill:#73BA90;" width="117.173" height="23.341"/>
	<path style="fill:#89C393;" d="M381.661,172.67h16.7c0,2.017,0.301,4.01,0.844,5.926h6.124c0,4.827,1.638,9.519,4.555,13.315
		c3.148,1.681,6.698,2.594,10.316,2.594h0.61v4.982c2.047,0.624,4.189,0.951,6.357,0.951h0.61v109.694h-0.61
		c-5.769,0-11.366,2.322-15.443,6.397c-4.08,4.075-6.395,9.671-6.395,15.443c0,0.505,0.038,1.008,0.072,1.506h-23.739v13.104h67.296
		V149.329h-67.296V172.67z"/>
	<rect x="164.053" y="333.478" style="fill:#5FB590;" width="100.435" height="13.104"/>
	<polygon style="fill:#5FB590;" points="182.957,172.67 264.489,172.67 264.489,149.329 164.053,149.329 164.053,172.67 	"/>
	<path style="fill:#43B090;" d="M264.489,346.583H164.053v-13.104h-56.054v-0.727c0-1.764-0.24-3.507-0.66-5.199h-6.308v-0.729
		c0-4.824-1.64-9.514-4.555-13.311c-3.067-1.634-6.514-2.54-10.033-2.585v-4.665c-2.228-0.785-4.575-1.232-6.967-1.263V193.734
		h0.491c5.771,0,11.368-2.325,15.445-6.4c3.891-3.895,6.16-9.173,6.357-14.664h62.283v-23.341H51.328v201.564h106.579h6.146h100.435
		h117.173h67.296v-4.311h-67.296H264.489z"/>
	<path style="fill:#4FA787;" d="M420.81,304.204h-0.61c-5.767,0-11.366,2.322-15.443,6.397c-4.077,4.075-6.395,9.673-6.395,15.443
		c0,0.505,0.04,1.008,0.074,1.508H107.34c0.42,1.692,0.66,3.435,0.66,5.199v0.727h56.054h100.435h117.173H405.4
		c-0.034-0.498-0.072-1.001-0.072-1.506c0-5.771,2.316-11.368,6.395-15.443c4.077-4.075,9.674-6.397,15.443-6.397h0.61V200.438
		h-0.61c-2.168,0-4.311-0.328-6.357-0.951v93.215V304.204z"/>
	<path style="fill:#4FA787;" d="M409.884,191.912c-2.917-3.797-4.555-8.489-4.555-13.315h-6.124c1.01,3.566,2.901,6.864,5.552,9.516
		C406.275,189.636,408.008,190.909,409.884,191.912z"/>
	<path style="fill:#4FA787;" d="M86.444,306.262v4.665c3.519,0.045,6.965,0.951,10.033,2.585c-0.57-0.741-1.171-1.463-1.84-2.132
		C92.316,309.06,89.498,307.337,86.444,306.262z"/>
	<path style="fill:#A8D59A;" d="M182.957,172.67v44.679c12.142-24.854,37.663-41.975,67.186-41.975
		c41.28,0,74.742,33.455,74.742,74.743c0,15.829-4.937,30.499-13.336,42.585H420.81v-93.215v-4.982h-0.61
		c-3.617,0-7.167-0.913-10.316-2.594c-1.876-1.003-3.608-2.275-5.127-3.799c-2.65-2.652-4.542-5.951-5.552-9.516
		c-0.543-1.916-0.844-3.909-0.844-5.926h-16.7H264.489H182.957z M370.433,275.875c-14.231,0-25.765-11.536-25.765-25.758
		c0-14.235,11.534-25.771,25.765-25.771c14.227,0,25.763,11.536,25.763,25.771C396.195,264.339,384.659,275.875,370.433,275.875z"/>
	<path style="fill:#A8D59A;" d="M182.957,292.702h5.783c-2.168-3.112-4.106-6.395-5.783-9.831V292.702z"/>
	<path style="fill:#88CB9B;" d="M398.435,327.552c-0.034-0.5-0.074-1.003-0.074-1.508c0-5.769,2.318-11.368,6.395-15.443
		c4.077-4.075,9.676-6.397,15.443-6.397h0.61v-11.502H311.549c-13.497,19.423-35.959,32.151-61.406,32.151
		s-47.909-12.728-61.404-32.151h-5.783v-9.831c-4.834-9.889-7.553-21.005-7.553-32.754c0-11.756,2.72-22.872,7.553-32.768V172.67
		h-18.903H101.77c-0.197,5.491-2.466,10.769-6.357,14.664c-4.077,4.075-9.674,6.4-15.445,6.4h-0.491v111.265
		c2.392,0.031,4.739,0.478,6.967,1.263c3.054,1.075,5.872,2.798,8.193,5.118c0.669,0.669,1.27,1.391,1.84,2.132
		c2.915,3.797,4.555,8.486,4.555,13.311v0.729h6.308H398.435z M129.855,275.875c-14.229,0-25.763-11.536-25.763-25.758
		c0-14.235,11.534-25.771,25.763-25.771c14.229,0,25.763,11.536,25.763,25.771C155.618,264.339,144.084,275.875,129.855,275.875z"/>
	<polygon style="fill:#73BA90;" points="268.918,267.328 268.9,267.267 268.905,267.792 	"/>
	<path style="fill:#73BA90;" d="M182.957,282.871c1.676,3.435,3.615,6.718,5.783,9.831c13.495,19.423,35.957,32.151,61.404,32.151
		s47.909-12.728,61.406-32.151c8.399-12.086,13.336-26.756,13.336-42.585c0-41.288-33.462-74.743-74.742-74.743
		c-29.524,0-55.044,17.121-67.186,41.975c-4.834,9.896-7.553,21.012-7.553,32.768C175.403,261.866,178.123,272.982,182.957,282.871z
		 M211.58,261.087c2.459-8.215,12.613-7.739,16.363-2.412c5.08-0.054,10.459,3.476,8.846,8.933
		c-0.507,1.723-0.709,3.498-0.424,4.423c0.112,0.413,0.258,0.821,0.42,1.218l0.224,0.382l0.826,1.039
		c0.211,0.049,0.415,0.119,0.624,0.164c3.375,0.723,2.419,0.633,5.922,0.801c2.567,0.128,5.145,0.139,7.71-0.072
		c0.711-0.063,1.42-0.119,2.125-0.198l0.473-0.079c1.061-0.184,2.121-0.375,3.166-0.631c1.001-0.242,2.004-0.494,2.984-0.808
		c0.321-0.112,2.069-0.803,2.008-0.729c0.965-0.46,1.916-0.958,2.8-1.56l1.591-1.427l1.169-1.483
		c0.144-0.33,0.316-0.756,0.408-0.963l0.049-0.509c-0.141-0.393-0.458-1.109-0.464-1.18c-1.328-2.246-3.245-4.272-5.139-5.648
		c-3.249-2.37-6.709-4.452-10.338-6.191c-3.48-1.674-6.012-2.738-10.235-3.913c-3.545-0.992-7.192-1.528-10.733-2.54
		c-9.301-2.67-20.42-8.415-20.348-19.67c0.101-15.277,14.568-22.408,28.074-24.064c-0.058-1.656-0.121-3.314-0.132-4.97
		c-0.031-4.903,4.12-9,8.996-9c3.124,0,5.881,1.647,7.497,4.1c0.285-0.025,0.565-0.076,0.855-0.076c4.647,0,8.462,3.276,8.484,7.194
		c0.016,2.06,0.09,4.097,0.119,6.128c1.717,0.756,3.337,1.649,4.822,2.672c9.009,2.717,16.082,8.143,16.17,17.485
		c0.061,6.498-8.226,8.426-13.239,5.821c-5.296,2.011-12.571-0.657-12.598-8.038v-0.027l-0.045-0.056l-0.482-0.498
		c-0.135-0.067-0.321-0.168-0.581-0.314c-0.332-0.195-2.006-0.963-1.667-0.873c-1.746-0.64-3.545-1.138-5.377-1.476
		c-3.061,0.177-7.14,0.857-9.42,1.867c-1.62,0.718-2.814,1.373-3.339,1.809c-1.293,1.086-1.207,0.734-2.103,2.524
		c-0.372,0.736-0.307,1.591,0.247,2.423c1.957,0.48,4.046,0.918,5.747,1.277c7.033,1.483,14.016,4.27,20.389,7.724
		c5.794,2.316,11.258,5.26,16.165,8.648c7.475,5.172,15.616,13.389,14.516,22.217c-1.663,13.3-14.494,20.846-29.106,23.045
		l0.054,0.521l0.018,0.079c0.996,3.824-1.297,7.764-5.922,8.85c-2.323,0.539-4.881,0.117-6.914-0.969
		c-0.415,0.191-0.844,0.366-1.299,0.494c-4.681,1.281-9.84-1.539-11.074-6.288c-0.254-0.978-0.413-1.986-0.525-3
		c-1.575-0.195-3.133-0.442-4.656-0.745C219.971,289.527,206.516,277.991,211.58,261.087z"/>
	<path style="fill:#73BA90;" d="M129.855,224.345c-14.229,0-25.763,11.536-25.763,25.771c0,14.222,11.534,25.758,25.763,25.758
		c14.229,0,25.763-11.536,25.763-25.758C155.618,235.881,144.084,224.345,129.855,224.345z"/>
	<path style="fill:#73BA90;" d="M370.433,224.345c-14.231,0-25.765,11.536-25.765,25.771c0,14.222,11.534,25.758,25.765,25.758
		c14.227,0,25.763-11.536,25.763-25.758C396.195,235.881,384.659,224.345,370.433,224.345z"/>
	<path style="fill:#258B73;" d="M266.499,240.997c7.082,4.149,14.624,9.656,18.165,17.314c4.088,8.848,1.948,18.806-5.46,25.278
		c-5.926,5.177-13.34,8.139-21.129,9.42c0.319,3.792-1.757,7.463-5.237,9.045c2.033,1.086,4.591,1.508,6.914,0.969
		c4.625-1.086,6.918-5.026,5.922-8.85l-0.018-0.079l-0.054-0.521c14.613-2.199,27.444-9.745,29.106-23.045
		c1.1-8.828-7.042-17.045-14.516-22.217c-4.908-3.388-10.372-6.332-16.165-8.648C264.848,240.113,265.7,240.528,266.499,240.997z"/>
	<path style="fill:#258B73;" d="M278.657,225.285c0.016,4.223-2.372,6.891-5.401,8.038c5.013,2.605,13.3,0.678,13.239-5.821
		c-0.088-9.341-7.161-14.767-16.17-17.485C275.244,213.408,278.634,218.336,278.657,225.285z"/>
	<path style="fill:#258B73;" d="M228.935,265.873c-0.191,0.626-0.368,1.263-0.505,1.907l-0.011,0.186
		c-0.007,0.431-0.022,0.693-0.038,0.862l0.013,0.049c0.11,0.426,0.155,0.666,0.162,0.801l0.348,0.509l0.168,0.292l0.377,0.364
		c0.415,0.39,0.583,0.588,0.633,0.678c0.139,0.072,0.35,0.189,0.687,0.397c0.81,0.491,1.634,0.974,2.502,1.371l0.22,0.101
		l0.402,0.135c0.487,0.173,0.978,0.341,1.472,0.491c0.819,0.24,1.643,0.453,2.471,0.653l-0.826-1.039l-0.224-0.382
		c-0.162-0.397-0.307-0.806-0.42-1.218c-0.285-0.924-0.083-2.699,0.424-4.423c1.613-5.457-3.765-8.987-8.846-8.933
		C229.256,260.537,229.799,262.981,228.935,265.873z"/>
	<path style="fill:#258B73;" d="M257.676,204.843c2.695,0.595,5.354,1.414,7.827,2.502c-0.029-2.031-0.103-4.068-0.119-6.128
		c-0.022-3.918-3.837-7.194-8.484-7.194c-0.289,0-0.57,0.052-0.855,0.076c0.933,1.418,1.495,3.103,1.506,4.901
		C257.564,200.964,257.64,202.907,257.676,204.843z"/>
	<path style="fill:#258B73;" d="M250.639,221.771c-0.272-0.029-0.545-0.056-0.819-0.074c-1.1-0.067-2.201-0.128-3.303-0.123
		c-1.384,0.007-2.774,0.04-4.154,0.157c-0.417,0.034-0.835,0.083-1.25,0.135l-0.438,0.067c-2.103,0.379-4.198,0.873-6.207,1.607
		c-0.079,0.072-2.031,0.951-2.392,1.176c-0.442,0.274-0.684,0.408-0.817,0.469l-0.09,0.09c-0.373,0.341-0.741,0.693-1.086,1.07
		l-0.289,0.464l-0.029,0.117l-0.022,0.15l-0.004,0.213v0.029c0.655,0.521,1.773,1.236,3.249,1.869
		c1.158,0.494,2.967,1.003,4.903,1.476c-0.554-0.832-0.619-1.687-0.247-2.423c0.895-1.791,0.81-1.438,2.103-2.524
		c0.525-0.435,1.719-1.091,3.339-1.809c2.28-1.01,6.359-1.69,9.42-1.867c-0.094-0.016-0.191-0.047-0.285-0.063L250.639,221.771z"/>
	<path style="fill:#CBE086;" d="M235.283,292.515c1.524,0.303,3.081,0.55,4.656,0.745c0.112,1.014,0.271,2.022,0.525,3
		c1.234,4.748,6.393,7.569,11.074,6.288c0.456-0.128,0.884-0.303,1.299-0.494c3.48-1.582,5.556-5.253,5.237-9.045
		c7.789-1.281,15.203-4.243,21.129-9.42c7.407-6.471,9.548-16.43,5.46-25.278c-3.541-7.658-11.083-13.165-18.165-17.314
		c-0.799-0.469-1.652-0.884-2.473-1.333c-6.373-3.453-13.356-6.24-20.389-7.724c-1.701-0.359-3.79-0.797-5.747-1.277
		c-1.937-0.473-3.745-0.983-4.903-1.476c-1.477-0.633-2.594-1.349-3.249-1.869v-0.029l0.004-0.213l0.022-0.15l0.029-0.117
		l0.289-0.464c0.346-0.377,0.714-0.729,1.086-1.07l0.09-0.09c0.132-0.061,0.375-0.195,0.817-0.469
		c0.361-0.224,2.313-1.104,2.392-1.176c2.008-0.734,4.104-1.227,6.207-1.607l0.438-0.067c0.415-0.052,0.833-0.101,1.25-0.135
		c1.38-0.117,2.769-0.15,4.154-0.157c1.102-0.004,2.204,0.056,3.303,0.123c0.274,0.018,0.548,0.045,0.819,0.074l1.582,0.206
		c0.094,0.016,0.191,0.047,0.285,0.063c1.831,0.339,3.631,0.837,5.377,1.476c-0.339-0.09,1.335,0.678,1.667,0.873
		c0.26,0.146,0.447,0.247,0.581,0.314l0.482,0.498l0.045,0.056v0.027c0.027,7.38,7.302,10.048,12.598,8.038
		c3.029-1.147,5.417-3.815,5.401-8.038c-0.022-6.949-3.413-11.877-8.332-15.268c-1.485-1.023-3.106-1.916-4.822-2.672
		c-2.473-1.088-5.132-1.907-7.827-2.502c-0.036-1.937-0.112-3.88-0.126-5.843c-0.011-1.797-0.572-3.483-1.506-4.901
		c-1.616-2.453-4.373-4.1-7.497-4.1c-4.876,0-9.027,4.097-8.996,9c0.011,1.656,0.074,3.314,0.132,4.97
		c-13.506,1.656-27.973,8.787-28.074,24.064c-0.072,11.256,11.047,17,20.348,19.67c3.541,1.012,7.187,1.548,10.733,2.54
		c4.223,1.176,6.754,2.239,10.235,3.913c3.628,1.739,7.089,3.821,10.338,6.191c1.894,1.376,3.81,3.402,5.139,5.648
		c0.007,0.072,0.323,0.788,0.464,1.18l-0.049,0.509c-0.092,0.206-0.265,0.633-0.408,0.963l-1.169,1.483l-1.591,1.427
		c-0.884,0.601-1.836,1.1-2.8,1.56c0.061-0.074-1.687,0.617-2.008,0.729c-0.981,0.314-1.984,0.565-2.984,0.808
		c-1.046,0.256-2.105,0.447-3.166,0.631l-0.473,0.079c-0.705,0.079-1.414,0.135-2.125,0.198c-2.565,0.211-5.143,0.2-7.71,0.072
		c-3.503-0.168-2.547-0.079-5.922-0.801c-0.209-0.045-0.413-0.114-0.624-0.164c-0.828-0.2-1.652-0.413-2.471-0.653
		c-0.494-0.15-0.985-0.319-1.472-0.491l-0.402-0.135l-0.22-0.101c-0.868-0.397-1.692-0.88-2.502-1.371
		c-0.337-0.209-0.548-0.325-0.687-0.397c-0.049-0.09-0.218-0.287-0.633-0.678l-0.377-0.364l-0.168-0.292l-0.348-0.509
		c-0.007-0.135-0.052-0.375-0.162-0.801l-0.013-0.049c0.016-0.168,0.031-0.431,0.038-0.862l0.011-0.186
		c0.137-0.644,0.314-1.281,0.505-1.907c0.864-2.892,0.321-5.336-0.992-7.198c-3.75-5.327-13.904-5.803-16.363,2.412
		C206.516,277.991,219.971,289.527,235.283,292.515z M268.918,267.328l-0.013,0.464l-0.004-0.525L268.918,267.328z"/>
</g>
</svg>
