<?xml version="1.0" encoding="iso-8859-1"?>
<!-- Generator: Adobe Illustrator 26.0.1, SVG Export Plug-In . SVG Version: 6.00 Build 0)  -->
<svg version="1.1" id="Layer_1" xmlns="http://www.w3.org/2000/svg" xmlns:xlink="http://www.w3.org/1999/xlink" x="0px" y="0px"
	 viewBox="0 0 500 500" style="enable-background:new 0 0 500 500;" xml:space="preserve">
<path style="fill:#8DC63F;" d="M250.139,5.11C114.821,5.11,5.143,114.804,5.143,250.117c0,135.306,109.679,244.993,244.997,244.993
	c135.314,0,245.003-109.687,245.003-244.993C495.143,114.804,385.453,5.11,250.139,5.11z M257.735,418.262
	c-2.547,0-5.074-0.079-7.594-0.191c-2.515,0.112-5.044,0.191-7.589,0.191c-92.873,0-168.159-75.286-168.159-168.153
	S149.679,81.957,242.553,81.957c2.545,0,5.074,0.079,7.589,0.191c2.52-0.112,5.047-0.191,7.594-0.191
	c23.474,0,45.817,4.824,66.114,13.513l0.009-0.007c2.118,0.907,4.21,1.862,6.283,2.85c0.799,0.384,1.58,0.792,2.372,1.187
	c1.441,0.716,2.875,1.441,4.29,2.197c0.891,0.476,1.77,0.965,2.652,1.459c1.333,0.74,2.652,1.499,3.963,2.278
	c0.835,0.496,1.669,0.99,2.498,1.499c1.467,0.909,2.913,1.842,4.351,2.789c0.617,0.408,1.245,0.803,1.858,1.218
	c2.011,1.367,3.99,2.771,5.935,4.221c0.512,0.381,1.008,0.781,1.515,1.167c1.459,1.115,2.906,2.242,4.326,3.402
	c0.698,0.57,1.382,1.149,2.071,1.73c0.648,0.548,1.315,1.077,1.955,1.634l-0.038,0.029c3.611,3.133,7.091,6.411,10.421,9.84
	l0.025-0.018c0.565,0.583,1.1,1.194,1.658,1.782c0.972,1.03,1.95,2.055,2.895,3.108c0.723,0.803,1.416,1.631,2.121,2.45
	c0.947,1.097,1.907,2.181,2.825,3.301c0.548,0.666,1.064,1.362,1.6,2.035c1.737,2.186,3.42,4.416,5.049,6.689
	c0.658,0.918,1.335,1.82,1.975,2.751l-0.013,0.009c3.344,4.869,6.449,9.909,9.274,15.128l0.004-0.002
	c1.129,2.089,2.204,4.207,3.245,6.348c0.325,0.666,0.635,1.34,0.951,2.013c0.747,1.591,1.472,3.193,2.172,4.811
	c0.323,0.741,0.646,1.483,0.958,2.233c0.781,1.88,1.528,3.781,2.246,5.697c0.148,0.404,0.314,0.799,0.462,1.205
	c0.828,2.269,1.598,4.566,2.327,6.88c0.238,0.749,0.456,1.508,0.682,2.26c0.5,1.663,0.976,3.334,1.425,5.015
	c0.224,0.841,0.447,1.674,0.655,2.518c0.476,1.896,0.913,3.806,1.324,5.729c0.115,0.539,0.247,1.075,0.357,1.618
	c0.013,0.061,0.029,0.123,0.04,0.184l-0.007,0.004c2.177,10.795,3.33,21.963,3.33,33.401
	C425.892,342.977,350.606,418.262,257.735,418.262z"/>
<path style="fill:#FAA41A;" d="M168.722,392.789c-1.174-0.734-2.325-1.503-3.48-2.266c-0.734-0.485-1.472-0.96-2.197-1.456
	c-1.753-1.196-3.476-2.423-5.177-3.682c-0.77-0.565-1.521-1.153-2.28-1.732c-1.194-0.916-2.379-1.845-3.55-2.791
	c-0.759-0.613-1.512-1.232-2.262-1.858c-1.263-1.059-2.509-2.143-3.739-3.238c-0.577-0.512-1.165-1.01-1.732-1.53
	c-1.721-1.577-3.411-3.186-5.065-4.831c-0.548-0.543-1.077-1.104-1.618-1.658c-1.169-1.192-2.327-2.401-3.46-3.628
	c-0.622-0.673-1.232-1.349-1.842-2.028c-0.411-0.465-0.839-0.913-1.248-1.378l0.036-0.025c-3.893-4.454-7.551-9.11-10.964-13.957
	l-0.034,0.022c-0.298-0.426-0.577-0.871-0.873-1.299c-0.678-0.985-1.342-1.979-2.002-2.978c-0.745-1.131-1.474-2.273-2.195-3.424
	c-0.64-1.023-1.275-2.051-1.894-3.092c-0.691-1.16-1.36-2.338-2.024-3.521c-0.595-1.057-1.194-2.109-1.766-3.182
	c-0.635-1.187-1.236-2.392-1.842-3.597c-0.554-1.097-1.12-2.188-1.652-3.299c-0.049-0.103-0.103-0.202-0.153-0.305l0.011-0.009
	c-2.04-4.304-3.905-8.706-5.581-13.203l-0.011,0.007c-0.045-0.114-0.081-0.233-0.123-0.35c-0.307-0.83-0.588-1.672-0.882-2.509
	c-0.53-1.506-1.05-3.02-1.539-4.548c-0.314-0.983-0.615-1.968-0.911-2.955c-0.438-1.461-0.853-2.931-1.252-4.409
	c-0.26-0.963-0.527-1.925-0.772-2.892c-0.489-1.948-0.936-3.907-1.355-5.881c-0.204-0.951-0.393-1.905-0.579-2.863
	c-0.368-1.88-0.711-3.772-1.014-5.677c-0.164-1.028-0.303-2.06-0.447-3.094c-0.213-1.51-0.408-3.027-0.581-4.551
	c-0.119-1.077-0.238-2.154-0.337-3.24c-0.153-1.631-0.269-3.274-0.375-4.921c-0.061-0.933-0.139-1.862-0.184-2.8
	c-0.004-0.103-0.016-0.206-0.018-0.31l0.011-0.009c-0.117-2.565-0.195-5.136-0.195-7.728c0-90.32,71.221-163.988,160.565-167.962
	c-2.515-0.112-5.044-0.191-7.589-0.191c-92.873,0-168.159,75.286-168.159,168.153s75.285,168.153,168.159,168.153
	c2.545,0,5.074-0.079,7.589-0.191c-29.811-1.326-57.589-10.421-81.393-25.3L168.722,392.789z"/>
<path style="fill:#FAC25A;" d="M343.419,105.433c0.835,0.496,1.669,0.99,2.498,1.499
	C345.089,106.423,344.254,105.929,343.419,105.433z"/>
<path style="fill:#FAC25A;" d="M385.462,242.445c0.15,2.538,0.249,5.091,0.249,7.665c0,70.686-57.298,127.975-127.976,127.975
	c-18.497,0-36.061-3.956-51.937-11.015l-37.05,25.702c23.804,14.879,51.582,23.974,81.393,25.3c2.52,0.112,5.047,0.191,7.594,0.191
	c92.871,0,168.156-75.286,168.156-168.153c0-11.437-1.153-22.605-3.33-33.401L385.462,242.445z"/>
<path style="fill:#FAC25A;" d="M350.268,109.721c0.617,0.408,1.245,0.803,1.858,1.218
	C351.513,110.525,350.885,110.13,350.268,109.721z"/>
<path style="fill:#FAC25A;" d="M358.061,115.161c0.512,0.381,1.008,0.781,1.515,1.167
	C359.069,115.942,358.573,115.542,358.061,115.161z"/>
<path style="fill:#FAC25A;" d="M363.902,119.729c0.698,0.57,1.382,1.153,2.071,1.73C365.284,120.878,364.6,120.299,363.902,119.729z
	"/>
<path style="fill:#FAC25A;" d="M389.434,145.62c1.737,2.186,3.418,4.416,5.049,6.689
	C392.854,150.036,391.171,147.805,389.434,145.62z"/>
<path style="fill:#FAC25A;" d="M412.091,183.367c0.323,0.741,0.646,1.483,0.958,2.233
	C412.738,184.85,412.414,184.107,412.091,183.367z"/>
<path style="fill:#FAC25A;" d="M385.009,140.284c0.947,1.097,1.907,2.181,2.825,3.301
	C386.916,142.465,385.956,141.381,385.009,140.284z"/>
<path style="fill:#FAC25A;" d="M330.141,98.313c0.799,0.384,1.58,0.792,2.372,1.187C331.721,99.105,330.94,98.697,330.141,98.313z"
	/>
<path style="fill:#FAC25A;" d="M379.994,134.725c0.972,1.03,1.95,2.055,2.895,3.108
	C381.944,136.781,380.965,135.755,379.994,134.725z"/>
<path style="fill:#FAC25A;" d="M408.968,176.543c0.325,0.666,0.635,1.34,0.951,2.013
	C409.603,177.883,409.293,177.209,408.968,176.543z"/>
<path style="fill:#FAC25A;" d="M418.085,199.382c0.238,0.749,0.456,1.508,0.682,2.26C418.54,200.89,418.323,200.131,418.085,199.382
	z"/>
<path style="fill:#FAC25A;" d="M420.192,206.656c0.224,0.841,0.447,1.676,0.655,2.518
	C420.639,208.33,420.416,207.498,420.192,206.656z"/>
<path style="fill:#FAC25A;" d="M336.804,101.697c0.891,0.476,1.77,0.965,2.652,1.459
	C338.574,102.662,337.695,102.173,336.804,101.697z"/>
<path style="fill:#FAC25A;" d="M422.171,214.903c0.115,0.539,0.247,1.075,0.357,1.618
	C422.418,215.978,422.286,215.441,422.171,214.903z"/>
<path style="fill:#FAC25A;" d="M415.296,191.297c0.148,0.404,0.314,0.799,0.462,1.205
	C415.61,192.096,415.444,191.701,415.296,191.297z"/>
<path style="fill:#FAC25A;" d="M91.702,276.763c-0.164-1.028-0.303-2.06-0.447-3.094C91.399,274.703,91.538,275.735,91.702,276.763z
	"/>
<path style="fill:#FAC25A;" d="M95.422,294.077c-0.26-0.963-0.527-1.925-0.772-2.892C94.895,292.152,95.162,293.115,95.422,294.077z
	"/>
<path style="fill:#FAC25A;" d="M93.295,285.303c-0.204-0.951-0.393-1.905-0.579-2.863C92.902,283.398,93.091,284.352,93.295,285.303
	z"/>
<path style="fill:#FAC25A;" d="M100.007,308.499c-0.307-0.83-0.588-1.672-0.882-2.509
	C99.419,306.827,99.699,307.669,100.007,308.499z"/>
<path style="fill:#FAC25A;" d="M97.585,301.442c-0.314-0.983-0.615-1.968-0.911-2.955C96.971,299.474,97.271,300.459,97.585,301.442
	z"/>
<path style="fill:#FAC25A;" d="M107.515,325.658c-0.552-1.097-1.12-2.188-1.652-3.299
	C106.395,323.47,106.961,324.561,107.515,325.658z"/>
<path style="fill:#FAC25A;" d="M111.123,332.437c-0.595-1.057-1.194-2.109-1.766-3.182
	C109.93,330.328,110.529,331.38,111.123,332.437z"/>
<path style="fill:#FAC25A;" d="M165.241,390.523c-0.734-0.485-1.472-0.96-2.197-1.456
	C163.769,389.563,164.507,390.038,165.241,390.523z"/>
<path style="fill:#FAC25A;" d="M146.037,375.765c-0.577-0.512-1.165-1.01-1.732-1.53
	C144.873,374.755,145.461,375.253,146.037,375.765z"/>
<path style="fill:#FAC25A;" d="M90.674,269.118c-0.119-1.077-0.238-2.154-0.337-3.24C90.436,266.964,90.555,268.041,90.674,269.118z
	"/>
<path style="fill:#FAC25A;" d="M152.038,380.861c-0.759-0.613-1.512-1.232-2.262-1.858
	C150.525,379.629,151.279,380.248,152.038,380.861z"/>
<path style="fill:#FAC25A;" d="M139.24,369.403c-0.548-0.543-1.077-1.104-1.618-1.658
	C138.163,368.299,138.693,368.86,139.24,369.403z"/>
<path style="fill:#FAC25A;" d="M119.238,345.452c-0.678-0.985-1.344-1.979-2.002-2.978
	C117.896,343.473,118.56,344.467,119.238,345.452z"/>
<path style="fill:#FAC25A;" d="M115.041,339.05c-0.64-1.023-1.275-2.051-1.894-3.092
	C113.767,336.999,114.402,338.027,115.041,339.05z"/>
<path style="fill:#FAC25A;" d="M134.162,364.117c-0.619-0.673-1.232-1.349-1.842-2.028
	C132.93,362.768,133.541,363.444,134.162,364.117z"/>
<path style="fill:#FAC25A;" d="M157.867,385.385c-0.77-0.565-1.521-1.153-2.28-1.732
	C156.346,384.231,157.098,384.819,157.867,385.385z"/>
<path style="fill:#FAC25A;" d="M363.433,177.968c3.337,4.878,6.333,10.003,8.978,15.335l33.307-23.106
	c-2.825-5.219-5.931-10.259-9.274-15.128L363.433,177.968z"/>
<path style="fill:#FAC25A;" d="M89.577,250.11c0,2.592,0.079,5.163,0.195,7.728l41.772-28.976
	c10.129-60.559,62.755-106.728,126.192-106.728c8.314,0,16.433,0.821,24.304,2.336l41.81-29
	c-20.297-8.688-42.64-13.513-66.114-13.513c-2.547,0-5.074,0.079-7.594,0.191C160.798,86.122,89.577,159.79,89.577,250.11z"/>
<path style="fill:#FAC25A;" d="M333.489,146.984c3.918,2.881,7.661,5.982,11.222,9.285l33.599-23.308
	c-3.33-3.429-6.81-6.707-10.421-9.84L333.489,146.984z"/>
<path style="fill:#FAC25A;" d="M89.963,260.957c-0.061-0.933-0.139-1.862-0.184-2.8C89.824,259.095,89.902,260.024,89.963,260.957z"
	/>
<path style="fill:#FAC25A;" d="M153.153,323.832l-33.009,22.897c3.413,4.847,7.071,9.503,10.964,13.957l33.274-23.081
	C160.329,333.285,156.579,328.681,153.153,323.832z"/>
<path style="fill:#FAC25A;" d="M134.593,284.942l-34.452,23.9c1.676,4.497,3.541,8.899,5.581,13.203l33.619-23.319
	C137.501,294.255,135.924,289.654,134.593,284.942z"/>
<path style="fill:#FAA41A;" d="M282.04,124.471c18.977,3.649,36.458,11.48,51.45,22.513l34.4-23.862l0.038-0.029
	c-0.64-0.556-1.306-1.086-1.955-1.634c-0.689-0.577-1.373-1.16-2.071-1.73c-1.42-1.16-2.868-2.287-4.326-3.402
	c-0.507-0.386-1.003-0.785-1.515-1.167c-1.945-1.45-3.925-2.854-5.935-4.221c-0.613-0.415-1.241-0.81-1.858-1.218
	c-1.438-0.947-2.884-1.88-4.351-2.789c-0.828-0.509-1.663-1.003-2.498-1.499c-1.311-0.779-2.63-1.537-3.963-2.278
	c-0.882-0.494-1.762-0.983-2.652-1.459c-1.416-0.756-2.85-1.481-4.29-2.197c-0.792-0.395-1.573-0.803-2.372-1.187
	c-2.073-0.987-4.165-1.943-6.283-2.85l-0.009,0.007L282.04,124.471z"/>
<path style="fill:#FAA41A;" d="M129.755,250.11c0-7.243,0.633-14.334,1.788-21.248l-41.772,28.976l-0.011,0.009
	c0.002,0.103,0.013,0.206,0.018,0.31c0.045,0.938,0.123,1.867,0.184,2.8c0.105,1.647,0.222,3.29,0.375,4.921
	c0.099,1.086,0.218,2.163,0.337,3.24c0.173,1.524,0.368,3.041,0.581,4.551c0.144,1.034,0.283,2.067,0.447,3.094
	c0.303,1.905,0.646,3.797,1.014,5.677c0.186,0.958,0.375,1.912,0.579,2.863c0.42,1.975,0.866,3.934,1.355,5.881
	c0.245,0.967,0.512,1.93,0.772,2.892c0.399,1.479,0.815,2.948,1.252,4.409c0.296,0.987,0.597,1.972,0.911,2.955
	c0.489,1.528,1.01,3.043,1.539,4.548c0.294,0.837,0.574,1.678,0.882,2.509c0.043,0.117,0.079,0.236,0.123,0.35l0.011-0.007
	l34.452-23.9C131.465,273.866,129.755,262.189,129.755,250.11z"/>
<path style="fill:#E69A50;" d="M164.382,337.605l-33.274,23.081l-0.036,0.025c0.408,0.464,0.837,0.913,1.248,1.378
	c0.61,0.68,1.223,1.355,1.842,2.028c1.133,1.227,2.291,2.437,3.46,3.628c0.541,0.554,1.07,1.115,1.618,1.658
	c1.654,1.645,3.344,3.254,5.065,4.831c0.568,0.521,1.156,1.019,1.732,1.53c1.23,1.095,2.475,2.179,3.739,3.238
	c0.749,0.626,1.503,1.245,2.262,1.858c1.171,0.947,2.356,1.876,3.55,2.791c0.759,0.579,1.51,1.167,2.28,1.732
	c1.701,1.259,3.424,2.486,5.177,3.682c0.725,0.496,1.463,0.972,2.197,1.456c1.156,0.763,2.307,1.533,3.48,2.266l0.027-0.018
	l37.05-25.702C190.062,360.073,176.005,350.002,164.382,337.605z"/>
<path style="fill:#E69A50;" d="M372.411,193.303c7.425,14.958,12.014,31.567,13.051,49.142l37.1-25.735l0.007-0.004
	c-0.011-0.061-0.027-0.123-0.04-0.184c-0.11-0.543-0.242-1.079-0.357-1.618c-0.411-1.923-0.848-3.833-1.324-5.729
	c-0.209-0.842-0.431-1.676-0.655-2.518c-0.449-1.681-0.924-3.352-1.425-5.015c-0.227-0.752-0.444-1.51-0.682-2.26
	c-0.729-2.313-1.499-4.611-2.327-6.88c-0.148-0.406-0.314-0.801-0.462-1.205c-0.718-1.916-1.465-3.817-2.246-5.697
	c-0.312-0.749-0.635-1.492-0.958-2.233c-0.7-1.618-1.425-3.22-2.172-4.811c-0.316-0.673-0.626-1.346-0.951-2.013
	c-1.041-2.141-2.116-4.259-3.245-6.348l-0.004,0.002L372.411,193.303z"/>
<path style="fill:#EFE16E;" d="M139.341,298.727l-33.619,23.319l-0.011,0.009c0.049,0.103,0.103,0.202,0.153,0.305
	c0.532,1.111,1.1,2.201,1.652,3.299c0.606,1.205,1.207,2.41,1.842,3.597c0.572,1.073,1.171,2.125,1.766,3.182
	c0.664,1.183,1.333,2.361,2.024,3.521c0.619,1.041,1.254,2.069,1.894,3.092c0.72,1.151,1.45,2.293,2.195,3.424
	c0.658,0.999,1.324,1.993,2.002,2.978c0.296,0.429,0.574,0.873,0.873,1.299l0.034-0.022l33.009-22.897
	C147.662,316.054,143.008,307.648,139.341,298.727z"/>
<path style="fill:#EFE16E;" d="M344.712,156.269c7.015,6.505,13.305,13.778,18.721,21.699l33.011-22.899l0.013-0.009
	c-0.64-0.931-1.317-1.833-1.975-2.751c-1.631-2.273-3.312-4.504-5.049-6.689c-0.536-0.673-1.052-1.369-1.6-2.035
	c-0.918-1.12-1.878-2.204-2.825-3.301c-0.705-0.819-1.398-1.647-2.121-2.45c-0.945-1.052-1.923-2.078-2.895-3.108
	c-0.559-0.588-1.093-1.198-1.658-1.782l-0.025,0.018L344.712,156.269z"/>
<path style="fill:#F8AF45;" d="M281.845,274.773c-0.004-0.013-0.016-0.043-0.02-0.063c0,0.186,0,0.393,0.002,0.689
	C281.824,275.116,281.833,274.925,281.845,274.773z"/>
<path style="fill:#F8AF45;" d="M264.734,129.133c-66.816,0-120.977,54.166-120.977,120.976c0,66.817,54.16,120.979,120.977,120.979
	c66.812,0,120.977-54.161,120.977-120.979C385.711,183.299,331.546,129.133,264.734,129.133z M277.44,310.898l0.031,0.101
	c1.344,5.168-1.75,10.49-7.998,11.947c-3.142,0.732-6.604,0.159-9.351-1.317c-0.561,0.256-1.122,0.509-1.735,0.678
	c-6.317,1.73-13.273-2.087-14.943-8.491c-0.346-1.324-0.559-2.686-0.714-4.057c-2.123-0.269-4.225-0.588-6.283-0.992
	c-20.665-4.03-38.823-19.603-31.988-42.417c3.321-11.101,17.056-10.457,22.11-3.256c6.849-0.061,14.09,4.699,11.913,12.054
	c-0.689,2.322-0.954,4.73-0.572,5.967c0.15,0.561,0.348,1.115,0.568,1.658l0.301,0.509c0.065,0.094,1.001,1.147,1.169,1.416
	c0.265,0.061,0.523,0.148,0.788,0.206c4.557,0.974,3.263,0.85,7.993,1.079c3.467,0.168,6.945,0.186,10.408-0.101
	c0.999-0.076,1.999-0.173,2.996-0.289c0.155-0.022,0.283-0.045,0.509-0.079c1.432-0.247,2.861-0.509,4.275-0.846
	c1.353-0.337,2.706-0.671,4.028-1.102c0.422-0.137,2.684-1.032,2.702-0.981c1.322-0.624,2.61-1.319,3.815-2.15
	c0.224-0.272,2.103-1.86,2.121-1.88c0.056-0.054,1.335-1.797,1.569-1.99c0.2-0.458,0.431-1.032,0.561-1.301
	c0.027-0.251,0.049-0.487,0.065-0.691c-0.157-0.426-0.462-1.138-0.577-1.45c-1.793-3.083-4.391-5.879-6.986-7.766
	c-4.385-3.202-9.054-6.011-13.951-8.363c-4.699-2.26-8.116-3.687-13.816-5.278c-4.784-1.337-9.71-2.064-14.483-3.431
	c-12.555-3.599-27.56-11.352-27.462-26.548c0.103-15.93,11.79-25.273,25.5-29.741c-4.304-18.501,3.862-40.092,22.359-47.36
	c10.004-3.929,24.601-3.296,34.945-1.465c12.295,2.172,27.078,8.3,37.153,15.739c25.568,18.887,62.38,72.622,22.929,96.439
	c-10.993,6.638-23.963,9.454-36.595,5.255c-0.42-0.139-0.85-0.307-1.272-0.453c4.775,5.646,7.98,12.158,7.131,18.943
	c-2.242,17.951-19.561,28.137-39.285,31.098L277.44,310.898z"/>
<path style="fill:#F8AF45;" d="M244.303,217.468c-0.821,0.44-1.454,0.835-1.827,1.147c-1.748,1.465-1.629,0.99-2.836,3.397
	c-0.503,0.999-0.417,2.15,0.33,3.274c2.641,0.644,5.462,1.241,7.755,1.723c2.652,0.561,5.302,1.257,7.932,2.067
	C251.549,225.42,247.745,221.536,244.303,217.468z"/>
<path style="fill:#AA6322;" d="M363.433,177.968c-5.417-7.921-11.707-15.194-18.721-21.699c-3.561-3.303-7.304-6.404-11.222-9.285
	c-14.992-11.033-32.472-18.865-51.45-22.513c-7.872-1.515-15.991-2.336-24.304-2.336c-63.437,0-116.063,46.169-126.192,106.728
	c-1.156,6.914-1.788,14.004-1.788,21.248c0,12.079,1.71,23.756,4.838,34.832c1.331,4.712,2.908,9.312,4.748,13.784
	c3.667,8.922,8.321,17.328,13.812,25.105c3.427,4.849,7.176,9.454,11.229,13.773c11.624,12.398,25.68,22.468,41.417,29.465
	c15.876,7.059,33.44,11.015,51.937,11.015c70.678,0,127.976-57.289,127.976-127.975c0,66.817-54.165,120.979-120.977,120.979
	c-66.816,0-120.977-54.161-120.977-120.979c0-66.81,54.16-120.976,120.977-120.976c66.812,0,120.977,54.166,120.977,120.976
	c0-2.574-0.099-5.127-0.249-7.665c-1.037-17.574-5.626-34.184-13.051-49.142C369.766,187.971,366.77,182.846,363.433,177.968z"/>
<path style="fill:#FFE269;" d="M242.212,182.554c-0.04-6.622,5.558-12.14,12.147-12.14c4.214,0,7.932,2.221,10.111,5.525
	c0.386-0.034,0.765-0.101,1.16-0.101c6.267,0,11.42,4.416,11.451,9.705c0.018,2.791,0.119,5.554,0.159,8.309
	c2.287,1.01,4.448,2.19,6.433,3.552c12.191,3.658,21.775,10.982,21.894,23.615c0.085,8.771-11.096,11.372-17.864,7.863
	c-7.143,2.711-16.962-0.889-17-10.845c-0.025-0.043-0.047-0.085-0.074-0.126c-0.341-0.332-0.525-0.53-0.64-0.671
	c-0.182-0.087-0.431-0.222-0.788-0.431c-0.39-0.22-2.121-1.019-2.273-1.149c-2.356-0.859-4.766-1.553-7.235-2.008
	c-4.129,0.236-9.638,1.151-12.712,2.52c-1.039,0.46-1.934,0.895-2.679,1.295c3.442,4.068,7.246,7.952,11.355,11.608
	c6.981,2.15,13.814,5.125,20.162,8.605c7.605,3.09,14.788,6.97,21.246,11.433c4.342,3.002,8.848,6.772,12.458,11.038
	c0.422,0.146,0.853,0.314,1.272,0.453c12.631,4.198,25.601,1.382,36.595-5.255c39.451-23.817,2.639-77.552-22.929-96.439
	c-10.075-7.439-24.859-13.567-37.153-15.739c-10.345-1.831-24.942-2.464-34.945,1.465c-18.497,7.268-26.663,28.859-22.359,47.36
	c4.037-1.315,8.24-2.221,12.389-2.729C242.313,187.029,242.227,184.794,242.212,182.554z"/>
<path style="fill:#AB5C36;" d="M316.655,279.095c0.848-6.786-2.356-13.297-7.131-18.943c-3.611-4.266-8.116-8.035-12.458-11.038
	c-6.458-4.463-13.641-8.343-21.246-11.433c0.929,0.512,1.858,1.021,2.767,1.553c9.553,5.592,19.736,13.033,24.513,23.37
	c5.518,11.94,2.628,25.379-7.367,34.117c-8.004,6.99-18.017,10.98-28.537,12.716c0.431,5.116-2.367,10.057-7.073,12.191
	c2.747,1.477,6.209,2.049,9.351,1.317c6.247-1.456,9.342-6.779,7.998-11.947l-0.031-0.101l-0.07-0.705
	C297.095,307.231,314.414,297.046,316.655,279.095z"/>
<path style="fill:#AB5C36;" d="M239.64,222.012c1.207-2.408,1.088-1.932,2.836-3.397c0.373-0.312,1.005-0.707,1.827-1.147
	c0.745-0.399,1.64-0.835,2.679-1.295c3.074-1.369,8.583-2.284,12.712-2.52c-0.13-0.025-0.256-0.065-0.384-0.088
	c-0.28-0.049-2.114-0.258-2.112-0.276c-0.377-0.034-0.754-0.074-1.129-0.101c-1.483-0.094-2.971-0.173-4.459-0.166
	c-1.869,0.011-3.741,0.049-5.603,0.211c-0.595,0.052-1.187,0.117-1.779,0.186c-0.155,0.022-0.281,0.045-0.503,0.079
	c-2.834,0.516-5.666,1.18-8.377,2.172c-0.108,0.105-2.733,1.292-3.222,1.589c-0.622,0.384-0.931,0.554-1.102,0.633
	c-0.045,0.043-0.058,0.058-0.121,0.117c-0.53,0.487-1.043,0.994-1.526,1.528c-0.137,0.227-0.258,0.42-0.346,0.554
	c-0.013,0.058-0.009,0.074-0.029,0.146c-0.016,0.061-0.025,0.139-0.031,0.224c0.079,0.157,0.092,0.263-0.004,0.251
	c0,0.018,0,0.034,0,0.054c0.877,0.702,2.376,1.667,4.385,2.533c1.564,0.669,4.001,1.351,6.618,1.986
	C239.223,224.161,239.137,223.01,239.64,222.012z"/>
<path style="fill:#AB5C36;" d="M227.884,272.807c-0.258,0.85-0.5,1.717-0.68,2.592c-0.007,0.09-0.009,0.126-0.016,0.231
	c-0.009,0.581-0.029,0.94-0.054,1.162c0.007,0.027,0.011,0.043,0.02,0.074c0.148,0.568,0.206,0.895,0.218,1.079
	c0.117,0.157,0.267,0.373,0.471,0.689c0.126,0.195,0.191,0.316,0.222,0.393c0.144,0.13,0.287,0.263,0.514,0.48
	c0.568,0.55,0.788,0.806,0.85,0.922c0.188,0.097,0.453,0.242,0.927,0.534c1.095,0.666,2.208,1.315,3.375,1.851
	c0.114,0.052,0.193,0.09,0.283,0.132c0.148,0.047,0.325,0.11,0.556,0.188c0.662,0.233,1.324,0.453,1.99,0.666
	c1.122,0.33,2.253,0.619,3.388,0.895c-0.168-0.269-1.104-1.322-1.169-1.416l-0.301-0.509c-0.22-0.543-0.417-1.097-0.568-1.658
	c-0.381-1.236-0.117-3.644,0.572-5.967c2.177-7.356-5.065-12.115-11.913-12.054C228.335,265.606,229.048,268.914,227.884,272.807z"
	/>
<path style="fill:#AB5C36;" d="M305.568,221.02c-0.119-12.633-9.703-19.957-21.894-23.615c6.665,4.575,11.292,11.215,11.321,20.622
	c0.016,5.704-3.202,9.303-7.291,10.856C294.471,232.392,305.653,229.791,305.568,221.02z"/>
<path style="fill:#AB5C36;" d="M277.081,185.543c-0.031-5.289-5.184-9.705-11.451-9.705c-0.395,0-0.774,0.067-1.16,0.101
	c1.263,1.914,2.017,4.189,2.033,6.615c0.018,2.659,0.114,5.287,0.164,7.91c3.644,0.803,7.226,1.914,10.574,3.388
	C277.2,191.097,277.099,188.335,277.081,185.543z"/>
<path style="fill:#FFF459;" d="M242.382,305.788c-0.085-1.097-0.162-2.199-0.274-3.296c-0.031-0.294-0.049-0.496-0.065-0.662
	c-0.765-6.202,2.087-12.25,8.576-14.038c5.944-1.634,13.762,1.966,14.943,8.486c0.527,2.926,0.828,5.893,1.059,8.855
	c0.052,0.626,0.112,1.248,0.168,1.871c0.025,0.128,0.052,0.249,0.079,0.357c0.18,0.691,0.269,1.384,0.328,2.076
	c10.52-1.737,20.532-5.726,28.537-12.716c9.995-8.738,12.885-22.177,7.367-34.117c-4.777-10.338-14.961-17.779-24.513-23.37
	c-0.909-0.532-1.838-1.041-2.767-1.553c-6.348-3.48-13.181-6.456-20.162-8.605c-2.63-0.81-5.28-1.506-7.932-2.067
	c-2.293-0.482-5.114-1.079-7.755-1.723c-2.616-0.635-5.053-1.317-6.618-1.986c-2.008-0.866-3.507-1.831-4.385-2.533
	c0-0.02,0-0.036,0-0.054c0.097,0.011,0.083-0.094,0.004-0.251c0.007-0.085,0.016-0.164,0.031-0.224
	c0.02-0.072,0.016-0.088,0.029-0.146c0.087-0.135,0.209-0.328,0.346-0.554c0.482-0.534,0.996-1.041,1.526-1.528
	c0.063-0.058,0.076-0.074,0.121-0.117c0.171-0.079,0.48-0.249,1.102-0.633c0.489-0.296,3.115-1.483,3.222-1.589
	c2.711-0.992,5.543-1.656,8.377-2.172c0.222-0.034,0.348-0.056,0.503-0.079c0.592-0.07,1.185-0.135,1.779-0.186
	c1.863-0.162,3.734-0.2,5.603-0.211c1.488-0.007,2.976,0.072,4.459,0.166c0.375,0.027,0.752,0.067,1.129,0.101
	c-0.002,0.018,1.831,0.227,2.112,0.276c0.128,0.022,0.254,0.063,0.384,0.088c2.468,0.455,4.878,1.149,7.235,2.008
	c0.153,0.13,1.883,0.929,2.273,1.149c0.357,0.209,0.606,0.343,0.788,0.431c0.114,0.141,0.298,0.339,0.64,0.671
	c0.027,0.04,0.049,0.083,0.074,0.126c0.038,9.956,9.858,13.555,17,10.845c4.089-1.553,7.306-5.152,7.291-10.856
	c-0.029-9.407-4.656-16.046-11.321-20.622c-1.986-1.362-4.147-2.542-6.433-3.552c-3.348-1.474-6.929-2.585-10.574-3.388
	c0.074,3.794,0.034,7.573-0.599,11.39c-1.082,6.539-9.066,10.104-14.938,8.48c-6.878-1.885-9.562-8.412-8.482-14.933
	c-0.743,4.49-0.144,0.123-0.146-1.025c-0.002-1.207-0.02-2.423-0.056-3.631c-0.016-0.494-0.034-0.987-0.052-1.477
	c-4.149,0.507-8.352,1.414-12.389,2.729c-13.711,4.468-25.397,13.811-25.5,29.741c-0.099,15.196,14.907,22.949,27.462,26.548
	c4.773,1.367,9.698,2.094,14.483,3.431c5.7,1.591,9.117,3.018,13.816,5.278c4.896,2.352,9.566,5.161,13.951,8.363
	c2.594,1.887,5.193,4.683,6.986,7.766c0.114,0.312,0.42,1.023,0.577,1.45c-0.016,0.204-0.038,0.44-0.065,0.691
	c-0.13,0.269-0.361,0.844-0.561,1.301c-0.233,0.193-1.512,1.936-1.569,1.99c-0.018,0.02-1.896,1.609-2.121,1.88
	c-1.205,0.83-2.493,1.526-3.815,2.15c-0.018-0.052-2.28,0.844-2.702,0.981c-1.322,0.431-2.675,0.765-4.028,1.102
	c-1.414,0.337-2.843,0.599-4.275,0.846c-0.227,0.034-0.355,0.056-0.509,0.079c-0.996,0.117-1.997,0.213-2.996,0.289
	c-3.462,0.287-6.941,0.269-10.408,0.101c-4.73-0.229-3.436-0.105-7.993-1.079c-0.265-0.058-0.523-0.146-0.788-0.206
	c-1.135-0.276-2.266-0.565-3.388-0.895c-0.666-0.213-1.328-0.433-1.99-0.666c-0.231-0.079-0.408-0.141-0.556-0.188
	c-0.09-0.043-0.168-0.081-0.283-0.132c-1.167-0.536-2.28-1.185-3.375-1.851c-0.473-0.292-0.738-0.438-0.927-0.534
	c-0.063-0.117-0.283-0.372-0.85-0.922c-0.227-0.218-0.37-0.35-0.514-0.48c-0.031-0.076-0.097-0.197-0.222-0.393
	c-0.204-0.316-0.355-0.532-0.471-0.689c-0.011-0.184-0.07-0.512-0.218-1.079c-0.009-0.031-0.013-0.047-0.02-0.074
	c0.025-0.222,0.045-0.581,0.054-1.162c0.007-0.105,0.009-0.141,0.016-0.231c0.18-0.875,0.422-1.741,0.68-2.592
	c1.165-3.893,0.451-7.201-1.313-9.714c-5.053-7.201-18.789-7.845-22.11,3.256c-6.835,22.814,11.323,38.387,31.988,42.417
	c2.058,0.404,4.16,0.723,6.283,0.992C242.584,308.434,242.488,307.103,242.382,305.788z M281.845,274.773
	c-0.011,0.153-0.02,0.343-0.018,0.626c-0.002-0.296-0.002-0.503-0.002-0.689C281.829,274.73,281.84,274.759,281.845,274.773z"/>
<path style="fill:#FFF459;" d="M266.635,306.109C266.579,305.683,266.586,305.782,266.635,306.109L266.635,306.109z"/>
<path style="fill:#FFF459;" d="M264.469,175.939c-2.179-3.303-5.897-5.525-10.111-5.525c-6.588,0-12.187,5.518-12.147,12.14
	c0.016,2.239,0.101,4.474,0.182,6.714c0.018,0.489,0.036,0.983,0.052,1.477c0.036,1.207,0.054,2.423,0.056,3.631
	c0.002,1.149-0.597,5.516,0.146,1.025c-1.079,6.521,1.604,13.048,8.482,14.933c5.873,1.625,13.857-1.941,14.938-8.48
	c0.633-3.817,0.673-7.596,0.599-11.39c-0.049-2.623-0.146-5.251-0.164-7.91C266.487,180.129,265.733,177.853,264.469,175.939z"/>
<path style="fill:#FFF459;" d="M267.196,309.437c-0.058-0.691-0.148-1.384-0.328-2.076c-0.027-0.108-0.054-0.229-0.079-0.357
	c-0.056-0.624-0.117-1.245-0.168-1.871c-0.231-2.962-0.532-5.928-1.059-8.855c-1.18-6.521-8.998-10.12-14.943-8.486
	c-6.49,1.788-9.342,7.836-8.576,14.038c0.016,0.166,0.034,0.368,0.065,0.662c0.112,1.097,0.188,2.199,0.274,3.296
	c0.105,1.315,0.202,2.646,0.35,3.969c0.155,1.371,0.368,2.733,0.714,4.057c1.67,6.404,8.626,10.221,14.943,8.491
	c0.613-0.168,1.174-0.422,1.735-0.678C264.829,319.494,267.627,314.553,267.196,309.437z M266.635,306.109
	C266.586,305.782,266.579,305.683,266.635,306.109L266.635,306.109z"/>
</svg>
